<?xml version="1.0"?>
<svg width="512" height="512" xmlns="http://www.w3.org/2000/svg" xmlns:svg="http://www.w3.org/2000/svg">
 <g class="layer">
  <title>Layer 1</title>
  <path d="m100.51,291.05l122.69,-63.47l0,-37.48l-13.83,0c-6.87,0 -13.4,-1.45 -19.36,-4.1l0,20.07l-122.69,63.5l0,50.43l33.18,0l0,-28.96zm327.62,28.97l0,-50.45l-122.69,-63.49l0,-20.05c-5.94,2.63 -12.49,4.09 -19.34,4.09l-13.8,0l-0.02,37.48l122.69,63.49l0,28.96l33.16,0zm-163.78,-0.02l0,-129.9l-33.18,0l0,129.9l33.18,0zm185.57,17.32l-76.72,0c-18.31,0 -33.18,15.52 -33.18,34.64l0,80.09c0,19.12 14.86,34.64 33.18,34.64l76.72,0c18.31,0 33.18,-15.52 33.18,-34.64l0,-80.09c0,-19.12 -14.86,-34.64 -33.18,-34.64zm-327.62,0l-76.72,0c-18.31,0 -33.18,15.52 -33.18,34.64l0,80.09c0,19.12 14.86,34.64 33.18,34.64l76.72,0c18.31,0 33.18,-15.52 33.18,-34.64l0,-80.09c0,-19.12 -14.86,-34.64 -33.18,-34.64zm87.09,-164.52l76.72,0c18.31,0 33.18,-15.52 33.18,-34.64l0,-80.09c0,-19.12 -14.86,-34.64 -33.18,-34.64l-76.72,0c-18.31,0 -33.18,15.52 -33.18,34.64l0,80.09c0,19.12 14.86,34.64 33.18,34.64zm76.72,164.52l-76.72,0c-18.31,0 -33.18,15.52 -33.18,34.64l0,80.09c0,19.12 14.86,34.64 33.18,34.64l76.72,0c18.31,0 33.18,-15.52 33.18,-34.64l0,-80.09c0,-19.12 -14.86,-34.64 -33.18,-34.64z" fill="#000000" id="svg_15" transform="matrix(1 0 0 1 0 0) rotate(270 247.741 255.079)"/>
  <path d="m306.24,91.31l-29.53,-53.02l53.1,53.02l-53.1,53.02l29.53,-53.02z" fill="#000000" id="svg_18"/>
  <path d="m306.5,255.33l-29.53,-53.02l53.1,53.02l-53.1,53.02l29.53,-53.02z" fill="#000000" id="svg_19"/>
  <path d="m306.5,418.26l-29.53,-53.02l53.1,53.02l-53.1,53.02l29.53,-53.02z" fill="#000000" id="svg_20"/>
 </g>
</svg>